<svg width="533" height="17" viewBox="0 0 533 17" fill="none" xmlns="http://www.w3.org/2000/svg">
<path d="M6.79 2.2H8.4V12H6.79V7.758H2.59V12H0.98V2.2H2.59V6.218H6.79V2.2ZM13.5649 12.182C12.5382 12.182 11.6656 11.8273 10.9469 11.118C10.2282 10.4087 9.86891 9.536 9.86891 8.5C9.86891 7.464 10.2282 6.59133 10.9469 5.882C11.6656 5.17267 12.5382 4.818 13.5649 4.818C14.6009 4.818 15.4736 5.17267 16.1829 5.882C16.9016 6.59133 17.2609 7.464 17.2609 8.5C17.2609 9.536 16.9016 10.4087 16.1829 11.118C15.4736 11.8273 14.6009 12.182 13.5649 12.182ZM12.0109 10.082C12.4309 10.502 12.9489 10.712 13.5649 10.712C14.1809 10.712 14.6989 10.502 15.1189 10.082C15.5389 9.662 15.7489 9.13467 15.7489 8.5C15.7489 7.86533 15.5389 7.338 15.1189 6.918C14.6989 6.498 14.1809 6.288 13.5649 6.288C12.9489 6.288 12.4309 6.498 12.0109 6.918C11.5909 7.338 11.3809 7.86533 11.3809 8.5C11.3809 9.13467 11.5909 9.662 12.0109 10.082ZM26.2721 4.818C27.0654 4.818 27.7048 5.07467 28.1901 5.588C28.6754 6.10133 28.9181 6.792 28.9181 7.66V12H27.4061V7.758C27.4061 7.27267 27.2848 6.89933 27.0421 6.638C26.7994 6.36733 26.4681 6.232 26.0481 6.232C25.5814 6.232 25.2081 6.386 24.9281 6.694C24.6574 7.002 24.5221 7.464 24.5221 8.08V12H23.0101V7.758C23.0101 7.27267 22.8934 6.89933 22.6601 6.638C22.4361 6.36733 22.1141 6.232 21.6941 6.232C21.2368 6.232 20.8634 6.39067 20.5741 6.708C20.2848 7.016 20.1401 7.47333 20.1401 8.08V12H18.6281V5H20.1401V5.84C20.5881 5.15867 21.2554 4.818 22.1421 4.818C23.0381 4.818 23.7008 5.18667 24.1301 5.924C24.5968 5.18667 25.3108 4.818 26.2721 4.818ZM31.7263 9.144C31.8383 9.676 32.095 10.0867 32.4963 10.376C32.8976 10.656 33.3876 10.796 33.9663 10.796C34.769 10.796 35.371 10.5067 35.7723 9.928L37.0183 10.656C36.3276 11.6733 35.3056 12.182 33.9523 12.182C32.8136 12.182 31.8943 11.8367 31.1943 11.146C30.4943 10.446 30.1443 9.564 30.1443 8.5C30.1443 7.45467 30.4896 6.582 31.1803 5.882C31.871 5.17267 32.7576 4.818 33.8403 4.818C34.867 4.818 35.707 5.17733 36.3603 5.896C37.023 6.61467 37.3543 7.48733 37.3543 8.514C37.3543 8.67267 37.3356 8.88267 37.2983 9.144H31.7263ZM31.7123 7.912H35.8283C35.7256 7.34267 35.4876 6.91333 35.1143 6.624C34.7503 6.33467 34.321 6.19 33.8263 6.19C33.2663 6.19 32.7996 6.344 32.4263 6.652C32.053 6.96 31.815 7.38 31.7123 7.912Z" fill="#F25822"/>
<path d="M80.3067 12L79.5087 9.802H75.0987L74.3007 12H72.9147L76.5687 2.2H78.0387L81.6927 12H80.3067ZM75.5467 8.584H79.0607L77.2967 3.754L75.5467 8.584ZM86.5868 4.818C87.5668 4.818 88.4022 5.17733 89.0928 5.896C89.7835 6.60533 90.1288 7.47333 90.1288 8.5C90.1288 9.52667 89.7835 10.3993 89.0928 11.118C88.4022 11.8273 87.5668 12.182 86.5868 12.182C85.4295 12.182 84.5475 11.72 83.9408 10.796V12H82.7228V2.2H83.9408V6.204C84.5475 5.28 85.4295 4.818 86.5868 4.818ZM86.4328 11.006C87.1328 11.006 87.7208 10.768 88.1968 10.292C88.6728 9.80667 88.9108 9.20933 88.9108 8.5C88.9108 7.79067 88.6728 7.198 88.1968 6.722C87.7208 6.23667 87.1328 5.994 86.4328 5.994C85.7235 5.994 85.1308 6.23667 84.6548 6.722C84.1788 7.198 83.9408 7.79067 83.9408 8.5C83.9408 9.20933 84.1788 9.80667 84.6548 10.292C85.1308 10.768 85.7235 11.006 86.4328 11.006ZM97.4902 11.118C96.7715 11.8273 95.8989 12.182 94.8722 12.182C93.8455 12.182 92.9729 11.8273 92.2542 11.118C91.5449 10.4087 91.1902 9.536 91.1902 8.5C91.1902 7.464 91.5449 6.59133 92.2542 5.882C92.9729 5.17267 93.8455 4.818 94.8722 4.818C95.8989 4.818 96.7715 5.17267 97.4902 5.882C98.2089 6.59133 98.5682 7.464 98.5682 8.5C98.5682 9.536 98.2089 10.4087 97.4902 11.118ZM94.8722 10.992C95.5722 10.992 96.1602 10.754 96.6362 10.278C97.1122 9.802 97.3502 9.20933 97.3502 8.5C97.3502 7.79067 97.1122 7.198 96.6362 6.722C96.1602 6.246 95.5722 6.008 94.8722 6.008C94.1815 6.008 93.5982 6.246 93.1222 6.722C92.6462 7.198 92.4082 7.79067 92.4082 8.5C92.4082 9.20933 92.6462 9.802 93.1222 10.278C93.5982 10.754 94.1815 10.992 94.8722 10.992ZM104.834 5H106.052V12H104.834V10.992C104.339 11.7853 103.583 12.182 102.566 12.182C101.745 12.182 101.087 11.9253 100.592 11.412C100.097 10.8893 99.8501 10.1847 99.8501 9.298V5H101.068V9.228C101.068 9.79733 101.222 10.2407 101.53 10.558C101.838 10.866 102.263 11.02 102.804 11.02C103.411 11.02 103.901 10.8333 104.274 10.46C104.647 10.0773 104.834 9.494 104.834 8.71V5ZM111.714 6.176H109.852V9.97C109.852 10.3153 109.918 10.5627 110.048 10.712C110.188 10.852 110.398 10.9267 110.678 10.936C110.958 10.936 111.304 10.9267 111.714 10.908V12C110.65 12.14 109.871 12.056 109.376 11.748C108.882 11.4307 108.634 10.838 108.634 9.97V6.176H107.248V5H108.634V3.404L109.852 3.04V5H111.714V6.176ZM123.025 11.244C122.344 11.8693 121.462 12.182 120.379 12.182C119.297 12.182 118.41 11.8693 117.719 11.244C117.038 10.6093 116.697 9.76467 116.697 8.71V2.2H117.999V8.654C117.999 9.34467 118.205 9.89533 118.615 10.306C119.026 10.7073 119.614 10.908 120.379 10.908C121.145 10.908 121.733 10.7073 122.143 10.306C122.554 9.89533 122.759 9.34467 122.759 8.654V2.2H124.047V8.71C124.047 9.76467 123.707 10.6093 123.025 11.244ZM126.894 6.89C126.894 7.16067 127.029 7.38 127.3 7.548C127.571 7.70667 127.897 7.83733 128.28 7.94C128.663 8.03333 129.045 8.14533 129.428 8.276C129.811 8.39733 130.137 8.612 130.408 8.92C130.679 9.21867 130.814 9.606 130.814 10.082C130.814 10.7167 130.567 11.2253 130.072 11.608C129.587 11.9907 128.961 12.182 128.196 12.182C127.515 12.182 126.931 12.0327 126.446 11.734C125.961 11.4353 125.615 11.0387 125.41 10.544L126.46 9.942C126.572 10.278 126.782 10.544 127.09 10.74C127.398 10.936 127.767 11.034 128.196 11.034C128.597 11.034 128.929 10.9593 129.19 10.81C129.451 10.6513 129.582 10.4087 129.582 10.082C129.582 9.81133 129.447 9.59667 129.176 9.438C128.905 9.27 128.579 9.13933 128.196 9.046C127.813 8.94333 127.431 8.82667 127.048 8.696C126.665 8.56533 126.339 8.35067 126.068 8.052C125.797 7.75333 125.662 7.37067 125.662 6.904C125.662 6.29733 125.895 5.798 126.362 5.406C126.838 5.014 127.431 4.818 128.14 4.818C128.709 4.818 129.213 4.94867 129.652 5.21C130.1 5.462 130.436 5.81667 130.66 6.274L129.638 6.848C129.386 6.25067 128.887 5.952 128.14 5.952C127.795 5.952 127.501 6.036 127.258 6.204C127.015 6.36267 126.894 6.59133 126.894 6.89ZM170.546 12.182C169.631 12.182 168.847 11.9673 168.194 11.538C167.55 11.1087 167.097 10.5207 166.836 9.774L167.956 9.13C168.339 10.3153 169.211 10.908 170.574 10.908C171.246 10.908 171.759 10.7727 172.114 10.502C172.469 10.222 172.646 9.85333 172.646 9.396C172.646 8.92933 172.469 8.57933 172.114 8.346C171.759 8.11267 171.167 7.86533 170.336 7.604C169.925 7.47333 169.613 7.37067 169.398 7.296C169.183 7.212 168.913 7.09067 168.586 6.932C168.269 6.764 168.031 6.596 167.872 6.428C167.713 6.25067 167.569 6.022 167.438 5.742C167.317 5.462 167.256 5.14467 167.256 4.79C167.256 3.94067 167.555 3.26867 168.152 2.774C168.749 2.27 169.477 2.018 170.336 2.018C171.111 2.018 171.783 2.214 172.352 2.606C172.931 2.998 173.365 3.516 173.654 4.16L172.562 4.79C172.142 3.782 171.4 3.278 170.336 3.278C169.804 3.278 169.375 3.40867 169.048 3.67C168.721 3.93133 168.558 4.286 168.558 4.734C168.558 5.16333 168.712 5.49 169.02 5.714C169.328 5.938 169.86 6.17133 170.616 6.414C170.887 6.498 171.078 6.55867 171.19 6.596C171.302 6.63333 171.475 6.69867 171.708 6.792C171.951 6.88533 172.128 6.96 172.24 7.016C172.352 7.072 172.501 7.15133 172.688 7.254C172.884 7.35667 173.029 7.45467 173.122 7.548C173.215 7.64133 173.323 7.758 173.444 7.898C173.575 8.02867 173.668 8.164 173.724 8.304C173.78 8.444 173.827 8.60733 173.864 8.794C173.911 8.97133 173.934 9.16267 173.934 9.368C173.934 10.2267 173.621 10.9127 172.996 11.426C172.371 11.93 171.554 12.182 170.546 12.182ZM176.368 9.06C176.489 9.68533 176.774 10.1707 177.222 10.516C177.679 10.8613 178.239 11.034 178.902 11.034C179.826 11.034 180.498 10.6933 180.918 10.012L181.954 10.6C181.273 11.6547 180.246 12.182 178.874 12.182C177.763 12.182 176.858 11.8367 176.158 11.146C175.467 10.446 175.122 9.564 175.122 8.5C175.122 7.44533 175.463 6.568 176.144 5.868C176.825 5.168 177.707 4.818 178.79 4.818C179.817 4.818 180.652 5.182 181.296 5.91C181.949 6.62867 182.276 7.49667 182.276 8.514C182.276 8.69133 182.262 8.87333 182.234 9.06H176.368ZM178.79 5.966C178.137 5.966 177.595 6.15267 177.166 6.526C176.737 6.89 176.471 7.38 176.368 7.996H181.044C180.941 7.33333 180.68 6.82933 180.26 6.484C179.84 6.13867 179.35 5.966 178.79 5.966ZM184.894 6.176C185.295 5.308 186.023 4.874 187.078 4.874V6.148C186.481 6.12 185.967 6.27867 185.538 6.624C185.109 6.96933 184.894 7.52467 184.894 8.29V12H183.676V5H184.894V6.176ZM193.17 5H194.486L191.686 12H190.258L187.458 5H188.774L190.972 10.698L193.17 5ZM196.132 3.726C195.898 3.726 195.702 3.64667 195.544 3.488C195.385 3.32933 195.306 3.138 195.306 2.914C195.306 2.69 195.385 2.49867 195.544 2.34C195.702 2.172 195.898 2.088 196.132 2.088C196.356 2.088 196.547 2.172 196.706 2.34C196.864 2.49867 196.944 2.69 196.944 2.914C196.944 3.138 196.864 3.32933 196.706 3.488C196.547 3.64667 196.356 3.726 196.132 3.726ZM195.516 12V5H196.734V12H195.516ZM201.882 12.182C200.827 12.182 199.95 11.832 199.25 11.132C198.55 10.4227 198.2 9.54533 198.2 8.5C198.2 7.45467 198.55 6.582 199.25 5.882C199.95 5.17267 200.827 4.818 201.882 4.818C202.573 4.818 203.193 4.986 203.744 5.322C204.295 5.64867 204.705 6.092 204.976 6.652L203.954 7.24C203.777 6.86667 203.501 6.568 203.128 6.344C202.764 6.12 202.349 6.008 201.882 6.008C201.182 6.008 200.594 6.246 200.118 6.722C199.651 7.198 199.418 7.79067 199.418 8.5C199.418 9.2 199.651 9.788 200.118 10.264C200.594 10.74 201.182 10.978 201.882 10.978C202.349 10.978 202.769 10.8707 203.142 10.656C203.515 10.432 203.8 10.1333 203.996 9.76L205.032 10.362C204.733 10.9127 204.304 11.356 203.744 11.692C203.184 12.0187 202.563 12.182 201.882 12.182ZM206.993 9.06C207.114 9.68533 207.399 10.1707 207.847 10.516C208.304 10.8613 208.864 11.034 209.527 11.034C210.451 11.034 211.123 10.6933 211.543 10.012L212.579 10.6C211.898 11.6547 210.871 12.182 209.499 12.182C208.388 12.182 207.483 11.8367 206.783 11.146C206.092 10.446 205.747 9.564 205.747 8.5C205.747 7.44533 206.088 6.568 206.769 5.868C207.45 5.168 208.332 4.818 209.415 4.818C210.442 4.818 211.277 5.182 211.921 5.91C212.574 6.62867 212.901 7.49667 212.901 8.514C212.901 8.69133 212.887 8.87333 212.859 9.06H206.993ZM209.415 5.966C208.762 5.966 208.22 6.15267 207.791 6.526C207.362 6.89 207.096 7.38 206.993 7.996H211.669C211.566 7.33333 211.305 6.82933 210.885 6.484C210.465 6.13867 209.975 5.966 209.415 5.966ZM215.078 6.89C215.078 7.16067 215.213 7.38 215.484 7.548C215.754 7.70667 216.081 7.83733 216.464 7.94C216.846 8.03333 217.229 8.14533 217.612 8.276C217.994 8.39733 218.321 8.612 218.592 8.92C218.862 9.21867 218.998 9.606 218.998 10.082C218.998 10.7167 218.75 11.2253 218.256 11.608C217.77 11.9907 217.145 12.182 216.38 12.182C215.698 12.182 215.115 12.0327 214.63 11.734C214.144 11.4353 213.799 11.0387 213.594 10.544L214.644 9.942C214.756 10.278 214.966 10.544 215.274 10.74C215.582 10.936 215.95 11.034 216.38 11.034C216.781 11.034 217.112 10.9593 217.374 10.81C217.635 10.6513 217.766 10.4087 217.766 10.082C217.766 9.81133 217.63 9.59667 217.36 9.438C217.089 9.27 216.762 9.13933 216.38 9.046C215.997 8.94333 215.614 8.82667 215.232 8.696C214.849 8.56533 214.522 8.35067 214.252 8.052C213.981 7.75333 213.846 7.37067 213.846 6.904C213.846 6.29733 214.079 5.798 214.546 5.406C215.022 5.014 215.614 4.818 216.324 4.818C216.893 4.818 217.397 4.94867 217.836 5.21C218.284 5.462 218.62 5.81667 218.844 6.274L217.822 6.848C217.57 6.25067 217.07 5.952 216.324 5.952C215.978 5.952 215.684 6.036 215.442 6.204C215.199 6.36267 215.078 6.59133 215.078 6.89ZM261.208 3.432H256.868V6.61H261.026V7.842H256.868V12H255.566V2.2H261.208V3.432ZM263.512 9.06C263.634 9.68533 263.918 10.1707 264.366 10.516C264.824 10.8613 265.384 11.034 266.046 11.034C266.97 11.034 267.642 10.6933 268.062 10.012L269.098 10.6C268.417 11.6547 267.39 12.182 266.018 12.182C264.908 12.182 264.002 11.8367 263.302 11.146C262.612 10.446 262.266 9.564 262.266 8.5C262.266 7.44533 262.607 6.568 263.288 5.868C263.97 5.168 264.852 4.818 265.934 4.818C266.961 4.818 267.796 5.182 268.44 5.91C269.094 6.62867 269.42 7.49667 269.42 8.514C269.42 8.69133 269.406 8.87333 269.378 9.06H263.512ZM265.934 5.966C265.281 5.966 264.74 6.15267 264.31 6.526C263.881 6.89 263.615 7.38 263.512 7.996H268.188C268.086 7.33333 267.824 6.82933 267.404 6.484C266.984 6.13867 266.494 5.966 265.934 5.966ZM276.603 5H277.821V12H276.603V10.796C275.996 11.72 275.114 12.182 273.957 12.182C272.977 12.182 272.141 11.8273 271.451 11.118C270.76 10.3993 270.415 9.52667 270.415 8.5C270.415 7.47333 270.76 6.60533 271.451 5.896C272.141 5.17733 272.977 4.818 273.957 4.818C275.114 4.818 275.996 5.28 276.603 6.204V5ZM274.111 11.006C274.82 11.006 275.413 10.768 275.889 10.292C276.365 9.80667 276.603 9.20933 276.603 8.5C276.603 7.79067 276.365 7.198 275.889 6.722C275.413 6.23667 274.82 5.994 274.111 5.994C273.411 5.994 272.823 6.23667 272.347 6.722C271.871 7.198 271.633 7.79067 271.633 8.5C271.633 9.20933 271.871 9.80667 272.347 10.292C272.823 10.768 273.411 11.006 274.111 11.006ZM283.474 6.176H281.612V9.97C281.612 10.3153 281.678 10.5627 281.808 10.712C281.948 10.852 282.158 10.9267 282.438 10.936C282.718 10.936 283.064 10.9267 283.474 10.908V12C282.41 12.14 281.631 12.056 281.136 11.748C280.642 11.4307 280.394 10.838 280.394 9.97V6.176H279.008V5H280.394V3.404L281.612 3.04V5H283.474V6.176ZM289.787 5H291.005V12H289.787V10.992C289.293 11.7853 288.537 12.182 287.519 12.182C286.698 12.182 286.04 11.9253 285.545 11.412C285.051 10.8893 284.803 10.1847 284.803 9.298V5H286.021V9.228C286.021 9.79733 286.175 10.2407 286.483 10.558C286.791 10.866 287.216 11.02 287.757 11.02C288.364 11.02 288.854 10.8333 289.227 10.46C289.601 10.0773 289.787 9.494 289.787 8.71V5ZM294.078 6.176C294.479 5.308 295.207 4.874 296.262 4.874V6.148C295.664 6.12 295.151 6.27867 294.722 6.624C294.292 6.96933 294.078 7.52467 294.078 8.29V12H292.86V5H294.078V6.176ZM297.924 9.06C298.046 9.68533 298.33 10.1707 298.778 10.516C299.236 10.8613 299.796 11.034 300.458 11.034C301.382 11.034 302.054 10.6933 302.474 10.012L303.51 10.6C302.829 11.6547 301.802 12.182 300.43 12.182C299.32 12.182 298.414 11.8367 297.714 11.146C297.024 10.446 296.678 9.564 296.678 8.5C296.678 7.44533 297.019 6.568 297.7 5.868C298.382 5.168 299.264 4.818 300.346 4.818C301.373 4.818 302.208 5.182 302.852 5.91C303.506 6.62867 303.832 7.49667 303.832 8.514C303.832 8.69133 303.818 8.87333 303.79 9.06H297.924ZM300.346 5.966C299.693 5.966 299.152 6.15267 298.722 6.526C298.293 6.89 298.027 7.38 297.924 7.996H302.6C302.498 7.33333 302.236 6.82933 301.816 6.484C301.396 6.13867 300.906 5.966 300.346 5.966ZM306.009 6.89C306.009 7.16067 306.144 7.38 306.415 7.548C306.686 7.70667 307.012 7.83733 307.395 7.94C307.778 8.03333 308.16 8.14533 308.543 8.276C308.926 8.39733 309.252 8.612 309.523 8.92C309.794 9.21867 309.929 9.606 309.929 10.082C309.929 10.7167 309.682 11.2253 309.187 11.608C308.702 11.9907 308.076 12.182 307.311 12.182C306.63 12.182 306.046 12.0327 305.561 11.734C305.076 11.4353 304.73 11.0387 304.525 10.544L305.575 9.942C305.687 10.278 305.897 10.544 306.205 10.74C306.513 10.936 306.882 11.034 307.311 11.034C307.712 11.034 308.044 10.9593 308.305 10.81C308.566 10.6513 308.697 10.4087 308.697 10.082C308.697 9.81133 308.562 9.59667 308.291 9.438C308.02 9.27 307.694 9.13933 307.311 9.046C306.928 8.94333 306.546 8.82667 306.163 8.696C305.78 8.56533 305.454 8.35067 305.183 8.052C304.912 7.75333 304.777 7.37067 304.777 6.904C304.777 6.29733 305.01 5.798 305.477 5.406C305.953 5.014 306.546 4.818 307.255 4.818C307.824 4.818 308.328 4.94867 308.767 5.21C309.215 5.462 309.551 5.81667 309.775 6.274L308.753 6.848C308.501 6.25067 308.002 5.952 307.255 5.952C306.91 5.952 306.616 6.036 306.373 6.204C306.13 6.36267 306.009 6.59133 306.009 6.89ZM352.769 2.2V3.432H349.871V12H348.583V3.432H345.699V2.2H352.769ZM353.514 9.06C353.636 9.68533 353.92 10.1707 354.368 10.516C354.826 10.8613 355.386 11.034 356.048 11.034C356.972 11.034 357.644 10.6933 358.064 10.012L359.1 10.6C358.419 11.6547 357.392 12.182 356.02 12.182C354.91 12.182 354.004 11.8367 353.304 11.146C352.614 10.446 352.268 9.564 352.268 8.5C352.268 7.44533 352.609 6.568 353.29 5.868C353.972 5.168 354.854 4.818 355.936 4.818C356.963 4.818 357.798 5.182 358.442 5.91C359.096 6.62867 359.422 7.49667 359.422 8.514C359.422 8.69133 359.408 8.87333 359.38 9.06H353.514ZM355.936 5.966C355.283 5.966 354.742 6.15267 354.312 6.526C353.883 6.89 353.617 7.38 353.514 7.996H358.19C358.088 7.33333 357.826 6.82933 357.406 6.484C356.986 6.13867 356.496 5.966 355.936 5.966ZM366.605 5H367.823V12H366.605V10.796C365.998 11.72 365.116 12.182 363.959 12.182C362.979 12.182 362.143 11.8273 361.453 11.118C360.762 10.3993 360.417 9.52667 360.417 8.5C360.417 7.47333 360.762 6.60533 361.453 5.896C362.143 5.17733 362.979 4.818 363.959 4.818C365.116 4.818 365.998 5.28 366.605 6.204V5ZM364.113 11.006C364.822 11.006 365.415 10.768 365.891 10.292C366.367 9.80667 366.605 9.20933 366.605 8.5C366.605 7.79067 366.367 7.198 365.891 6.722C365.415 6.23667 364.822 5.994 364.113 5.994C363.413 5.994 362.825 6.23667 362.349 6.722C361.873 7.198 361.635 7.79067 361.635 8.5C361.635 9.20933 361.873 9.80667 362.349 10.292C362.825 10.768 363.413 11.006 364.113 11.006ZM377.228 4.818C378.012 4.818 378.647 5.07467 379.132 5.588C379.617 6.092 379.86 6.778 379.86 7.646V12H378.642V7.688C378.642 7.14667 378.502 6.72667 378.222 6.428C377.942 6.12933 377.569 5.98 377.102 5.98C376.579 5.98 376.159 6.15733 375.842 6.512C375.534 6.85733 375.38 7.38933 375.38 8.108V12H374.162V7.688C374.162 7.14667 374.027 6.72667 373.756 6.428C373.495 6.12933 373.135 5.98 372.678 5.98C372.165 5.98 371.735 6.15733 371.39 6.512C371.054 6.86667 370.886 7.39867 370.886 8.108V12H369.668V5H370.886V5.938C371.362 5.19133 372.057 4.818 372.972 4.818C373.915 4.818 374.601 5.21467 375.03 6.008C375.515 5.21467 376.248 4.818 377.228 4.818ZM422.275 6.918C422.723 7.13267 423.078 7.44067 423.339 7.842C423.61 8.24333 423.745 8.70533 423.745 9.228C423.745 10.012 423.47 10.67 422.919 11.202C422.368 11.734 421.696 12 420.903 12H416.675V2.2H420.595C421.36 2.2 422.009 2.45667 422.541 2.97C423.073 3.48333 423.339 4.118 423.339 4.874C423.339 5.742 422.984 6.42333 422.275 6.918ZM420.595 3.418H417.977V6.414H420.595C421.006 6.414 421.351 6.26933 421.631 5.98C421.911 5.69067 422.051 5.336 422.051 4.916C422.051 4.50533 421.906 4.15533 421.617 3.866C421.337 3.56733 420.996 3.418 420.595 3.418ZM420.903 10.782C421.342 10.782 421.71 10.628 422.009 10.32C422.308 10.012 422.457 9.634 422.457 9.186C422.457 8.74733 422.303 8.374 421.995 8.066C421.696 7.758 421.332 7.604 420.903 7.604H417.977V10.782H420.903ZM425.162 12V1.78H426.38V12H425.162ZM434.146 11.118C433.428 11.8273 432.555 12.182 431.528 12.182C430.502 12.182 429.629 11.8273 428.91 11.118C428.201 10.4087 427.846 9.536 427.846 8.5C427.846 7.464 428.201 6.59133 428.91 5.882C429.629 5.17267 430.502 4.818 431.528 4.818C432.555 4.818 433.428 5.17267 434.146 5.882C434.865 6.59133 435.224 7.464 435.224 8.5C435.224 9.536 434.865 10.4087 434.146 11.118ZM431.528 10.992C432.228 10.992 432.816 10.754 433.292 10.278C433.768 9.802 434.006 9.20933 434.006 8.5C434.006 7.79067 433.768 7.198 433.292 6.722C432.816 6.246 432.228 6.008 431.528 6.008C430.838 6.008 430.254 6.246 429.778 6.722C429.302 7.198 429.064 7.79067 429.064 8.5C429.064 9.20933 429.302 9.802 429.778 10.278C430.254 10.754 430.838 10.992 431.528 10.992ZM442.47 5H443.674V11.706C443.674 12.742 443.324 13.5447 442.624 14.114C441.924 14.6927 441.084 14.982 440.104 14.982C439.32 14.982 438.644 14.8327 438.074 14.534C437.505 14.2447 437.076 13.8247 436.786 13.274L437.85 12.672C438.233 13.456 438.994 13.848 440.132 13.848C440.86 13.848 441.43 13.6567 441.84 13.274C442.26 12.8913 442.47 12.3687 442.47 11.706V10.712C441.854 11.6453 440.977 12.112 439.838 12.112C438.84 12.112 437.995 11.7573 437.304 11.048C436.614 10.3387 436.268 9.47533 436.268 8.458C436.268 7.44067 436.614 6.582 437.304 5.882C437.995 5.17267 438.84 4.818 439.838 4.818C440.986 4.818 441.864 5.28 442.47 6.204V5ZM438.2 10.236C438.676 10.712 439.269 10.95 439.978 10.95C440.688 10.95 441.28 10.712 441.756 10.236C442.232 9.76 442.47 9.16733 442.47 8.458C442.47 7.758 442.232 7.17 441.756 6.694C441.28 6.218 440.688 5.98 439.978 5.98C439.269 5.98 438.676 6.218 438.2 6.694C437.724 7.17 437.486 7.758 437.486 8.458C437.486 9.16733 437.724 9.76 438.2 10.236ZM485.252 12.182C483.768 12.182 482.54 11.692 481.57 10.712C480.608 9.732 480.128 8.528 480.128 7.1C480.128 5.672 480.608 4.468 481.57 3.488C482.54 2.508 483.768 2.018 485.252 2.018C486.148 2.018 486.969 2.23267 487.716 2.662C488.472 3.09133 489.06 3.67 489.48 4.398L488.346 5.056C488.066 4.51467 487.646 4.08533 487.086 3.768C486.535 3.44133 485.924 3.278 485.252 3.278C484.122 3.278 483.198 3.642 482.48 4.37C481.77 5.098 481.416 6.008 481.416 7.1C481.416 8.18267 481.77 9.088 482.48 9.816C483.198 10.544 484.122 10.908 485.252 10.908C485.924 10.908 486.535 10.7493 487.086 10.432C487.646 10.1053 488.066 9.676 488.346 9.144L489.48 9.788C489.069 10.516 488.486 11.0993 487.73 11.538C486.974 11.9673 486.148 12.182 485.252 12.182ZM496.709 11.118C495.99 11.8273 495.118 12.182 494.091 12.182C493.064 12.182 492.192 11.8273 491.473 11.118C490.764 10.4087 490.409 9.536 490.409 8.5C490.409 7.464 490.764 6.59133 491.473 5.882C492.192 5.17267 493.064 4.818 494.091 4.818C495.118 4.818 495.99 5.17267 496.709 5.882C497.428 6.59133 497.787 7.464 497.787 8.5C497.787 9.536 497.428 10.4087 496.709 11.118ZM494.091 10.992C494.791 10.992 495.379 10.754 495.855 10.278C496.331 9.802 496.569 9.20933 496.569 8.5C496.569 7.79067 496.331 7.198 495.855 6.722C495.379 6.246 494.791 6.008 494.091 6.008C493.4 6.008 492.817 6.246 492.341 6.722C491.865 7.198 491.627 7.79067 491.627 8.5C491.627 9.20933 491.865 9.802 492.341 10.278C492.817 10.754 493.4 10.992 494.091 10.992ZM502.709 4.818C503.53 4.818 504.188 5.07933 504.683 5.602C505.177 6.11533 505.425 6.81533 505.425 7.702V12H504.207V7.772C504.207 7.20267 504.053 6.764 503.745 6.456C503.437 6.13867 503.012 5.98 502.471 5.98C501.864 5.98 501.374 6.17133 501.001 6.554C500.627 6.92733 500.441 7.506 500.441 8.29V12H499.223V5H500.441V6.008C500.935 5.21467 501.691 4.818 502.709 4.818ZM510.933 6.176H509.071V9.97C509.071 10.3153 509.137 10.5627 509.267 10.712C509.407 10.852 509.617 10.9267 509.897 10.936C510.177 10.936 510.523 10.9267 510.933 10.908V12C509.869 12.14 509.09 12.056 508.595 11.748C508.101 11.4307 507.853 10.838 507.853 9.97V6.176H506.467V5H507.853V3.404L509.071 3.04V5H510.933V6.176ZM517.816 5H519.034V12H517.816V10.796C517.209 11.72 516.327 12.182 515.17 12.182C514.19 12.182 513.354 11.8273 512.664 11.118C511.973 10.3993 511.628 9.52667 511.628 8.5C511.628 7.47333 511.973 6.60533 512.664 5.896C513.354 5.17733 514.19 4.818 515.17 4.818C516.327 4.818 517.209 5.28 517.816 6.204V5ZM515.324 11.006C516.033 11.006 516.626 10.768 517.102 10.292C517.578 9.80667 517.816 9.20933 517.816 8.5C517.816 7.79067 517.578 7.198 517.102 6.722C516.626 6.23667 516.033 5.994 515.324 5.994C514.624 5.994 514.036 6.23667 513.56 6.722C513.084 7.198 512.846 7.79067 512.846 8.5C512.846 9.20933 513.084 9.80667 513.56 10.292C514.036 10.768 514.624 11.006 515.324 11.006ZM524.169 12.182C523.114 12.182 522.237 11.832 521.537 11.132C520.837 10.4227 520.487 9.54533 520.487 8.5C520.487 7.45467 520.837 6.582 521.537 5.882C522.237 5.17267 523.114 4.818 524.169 4.818C524.86 4.818 525.48 4.986 526.031 5.322C526.582 5.64867 526.992 6.092 527.263 6.652L526.241 7.24C526.064 6.86667 525.788 6.568 525.415 6.344C525.051 6.12 524.636 6.008 524.169 6.008C523.469 6.008 522.881 6.246 522.405 6.722C521.938 7.198 521.705 7.79067 521.705 8.5C521.705 9.2 521.938 9.788 522.405 10.264C522.881 10.74 523.469 10.978 524.169 10.978C524.636 10.978 525.056 10.8707 525.429 10.656C525.802 10.432 526.087 10.1333 526.283 9.76L527.319 10.362C527.02 10.9127 526.591 11.356 526.031 11.692C525.471 12.0187 524.85 12.182 524.169 12.182ZM532.33 6.176H530.468V9.97C530.468 10.3153 530.533 10.5627 530.664 10.712C530.804 10.852 531.014 10.9267 531.294 10.936C531.574 10.936 531.919 10.9267 532.33 10.908V12C531.266 12.14 530.486 12.056 529.992 11.748C529.497 11.4307 529.25 10.838 529.25 9.97V6.176H527.864V5H529.25V3.404L530.468 3.04V5H532.33V6.176Z" fill="black"/>
</svg>
